<svg xmlns="http://www.w3.org/2000/svg" width="2500" height="2500" viewBox="0 0 1372.201 1372.684"><path fill="#00979d" stroke="#81c9cb" stroke-width=".932" stroke-miterlimit="10" d="M 1371.7 686 c 0 378.7 -307 685.6 -685.5 685.6 C 307.5 1371.6 0.5 1064.7 0.5 686 C 0.5 307.5 307.5 0.5 686.2 0.5 c 378.6 0 685.5 307 685.5 685.5 z"/><linearGradient id="a" gradientUnits="userSpaceOnUse" x1="-16.3" y1="16.071" x2="1354.901" y2="16.071" gradientTransform="matrix(1 0 0 -1 16.8 702.696)"><stop offset=".117" stop-color="#ffffff" stop-opacity="0"/><stop offset=".252" stop-color="#c0d1d3" stop-opacity=".153"/><stop offset=".387" stop-color="#91b3b7" stop-opacity=".306"/><stop offset=".52" stop-color="#6d9fa3" stop-opacity=".457"/><stop offset=".65" stop-color="#4d9195" stop-opacity=".604"/><stop offset=".776" stop-color="#30888b" stop-opacity=".746"/><stop offset=".895" stop-color="#148386" stop-opacity=".881"/><stop offset="1" stop-color="#008184"/></linearGradient><linearGradient id="b" gradientUnits="userSpaceOnUse" x1="-16.8" y1="16.071" x2="1355.401" y2="16.071" gradientTransform="matrix(1 0 0 -1 16.8 702.696)"><stop offset="0" stop-color="#ffffff" stop-opacity="0"/><stop offset=".153" stop-color="#c0d1d3" stop-opacity=".153"/><stop offset=".306" stop-color="#91b3b7" stop-opacity=".306"/><stop offset=".457" stop-color="#6d9fa3" stop-opacity=".457"/><stop offset=".604" stop-color="#4d9195" stop-opacity=".604"/><stop offset=".746" stop-color="#30888b" stop-opacity=".746"/><stop offset=".881" stop-color="#148386" stop-opacity=".881"/><stop offset="1" stop-color="#008184"/></linearGradient><path opacity=".5" fill="url(#a)" stroke="url(#b)" stroke-miterlimit="10" d="M 1371.7 686.6 c 0 378.6 -307 685.6 -685.5 685.6 C 307.5 1372.2 0.5 1065.2 0.5 686.6 C 0.5 308 307.5 1 686.2 1 c 378.6 0 685.5 307 685.5 685.5 z"/><g fill="#ffffff"><path d="M 948 931.2 c -12.9 0 -26.1 -0.9 -39.1 -2.9 c -109 -15.6 -181.8 -93.8 -222.7 -154 c -40.9 60.2 -113.8 138.5 -222.7 154 a 275.9 275.9 0 0 1 -39.1 2.8 c -67.8 0 -131.4 -25.2 -179.2 -71 c -48.3 -46.2 -75 -108.1 -75 -174.2 c 0 -66.1 26.7 -128 75 -174.3 c 47.8 -45.8 111.4 -70.9 179.2 -70.9 c 12.9 0 26.1 0.9 39 2.8 c 108.9 15.5 181.8 93.8 222.7 154 c 40.8 -60.2 113.7 -138.4 222.7 -154 c 13 -1.9 26.1 -2.8 39.1 -2.8 c 67.8 0 131.4 25.2 179.2 70.9 c 48.3 46.2 74.9 108.1 74.9 174.3 c 0 66.1 -26.5 128 -74.9 174.2 c -47.9 45.8 -111.4 71 -179.2 71 M 734.4 686 c 21.3 40.5 84.1 141.7 186.7 156.4 c 9 1.2 18 1.9 26.8 1.9 c 92.2 0 167.2 -71 167.2 -158.3 s -75 -158.3 -167.3 -158.3 c -8.8 0 -17.9 0.6 -26.8 1.9 c -102.6 14.7 -165.4 115.8 -186.7 156.4 M 424.4 527.7 c -92.3 0 -167.4 71 -167.4 158.3 c 0 87.3 75 158.3 167.2 158.3 c 8.9 0 17.9 -0.7 26.9 -1.9 c 102.6 -14.7 165.4 -115.8 186.7 -156.4 c -21.2 -40.5 -84.1 -141.8 -186.7 -156.4 c -8.9 -1.3 -17.9 -2 -26.8 -2"/><path d="M 354.4 662.1 h 152.6 v 49.2 H 354.4 z M 1016.5 662.1 h -51.7 v -51.7 h -49.3 v 51.7 h -51.6 v 49.2 h 51.6 v 51.7 h 49.3 v -51.7 h 51.7 z"/></g></svg>