<?xml version="1.0" encoding="UTF-8" standalone="no"?>
<svg xmlns="http://www.w3.org/2000/svg" width="730" height="730" preserveAspectRatio="xMinYMin meet" viewport="0 0 720 490">
<title>Arduino Logo</title>
<style type="text/css">
.arduino {
  fill: none;
  stroke: #00979c;
  stroke-width: 1;
}

.text {
  fill: #00979c;
  stroke-width: 1;
}

</style>  
  <path id="infinity" class="arduino" style="stroke-width: 59" d="M 178 225 C 82.9 217.4 3.1 329.8 42.4 417 C 80.3 511.4 223.3 537.1 291.5 461.4 C 357.4 396.8 382.9 297.8 463 246.7 C 545.1 190.8 677.3 243.6 692.8 343.2 C 708.4 438.5 605.7 531.4 512.5 503.1 C 443.8 487.6 394.4 429 366.2 367.3 C 331.7 308.4 286.6 245.5 216.2 228.9 C 203.7 226.1 190.8 225 178 225 z" />  
  <path id="minus" class="arduino" d="M 120 364 h 120" style="stroke-width: 25" />
  <path id="plus" class="arduino" d="M 491 364 h 100 m -51 -50 v 100" style="stroke-width: 32" />

  <path id="TM" class="arduino text" d="M 675.4 199.4 c 0 0.8 0 1.6 0 2.3 c 1.7 0 3.4 0 5.1 0 c 0 4.5 0 9 0 13.6 c 0.9 0 1.8 0 2.7 0 c 0 -4.5 0 -9 0 -13.6 c 1.7 0 3.5 0 5.2 0 c 0 -0.8 0 -1.6 0 -2.3 c -4.3 0 -8.7 0 -13 0 z m 14.8 0 c 0 5.3 0 10.6 0 15.9 c 0.8 0 1.6 0 2.4 0 c 0 -4.5 0 -9 0 -13.6 c 1.4 4.5 2.9 9 4.3 13.6 c 0.8 0 1.6 0 2.4 0 c 1.4 -4.4 2.7 -8.9 4.1 -13.3 c 0 4.4 0 8.9 0 13.3 c 0.8 0 1.6 0 2.4 0 c 0 -5.3 0 -10.6 0 -15.9 c -1.3 0 -2.5 0 -3.8 0 c -1.3 4.2 -2.6 8.5 -3.9 12.7 c -1.3 -4.2 -2.7 -8.5 -4 -12.7 c -1.3 0 -2.6 0 -3.9 0 z" />
</svg>