<?xml version="1.0" encoding="UTF-8" standalone="no"?>
<!-- Created with Inkscape (http://www.inkscape.org/) -->

<svg
   xmlns:dc="http://purl.org/dc/elements/1.1/"
   xmlns:cc="http://creativecommons.org/ns#"
   xmlns:rdf="http://www.w3.org/1999/02/22-rdf-syntax-ns#"
   xmlns:svg="http://www.w3.org/2000/svg"
   xmlns="http://www.w3.org/2000/svg"
   xmlns:sodipodi="http://sodipodi.sourceforge.net/DTD/sodipodi-0.dtd"
   xmlns:inkscape="http://www.inkscape.org/namespaces/inkscape"
   width="350"
   height="350"
   id="svg3509"
   version="1.1"
   inkscape:version="0.91 r13725"
   sodipodi:docname="kicad_logo_paths.svg"
   inkscape:export-filename="/home/fabrizio/Desktop/kicad_logo2.png"
   inkscape:export-xdpi="130.52866"
   inkscape:export-ydpi="130.52866">
  <defs
     id="defs3511" />
  <sodipodi:namedview
     id="base"
     pagecolor="#ffffff"
     bordercolor="#666666"
     borderopacity="1.0"
     inkscape:pageopacity="0.0"
     inkscape:pageshadow="2"
     inkscape:zoom="1.4"
     inkscape:cx="134.88004"
     inkscape:cy="75.43884"
     inkscape:document-units="px"
     inkscape:current-layer="layer1"
     showgrid="true"
     inkscape:window-width="1276"
     inkscape:window-height="761"
     inkscape:window-x="0"
     inkscape:window-y="18"
     inkscape:window-maximized="0"
     inkscape:snap-grids="false"
     showguides="true"
     inkscape:guide-bbox="true"
     inkscape:snap-to-guides="false"
     fit-margin-top="0"
     fit-margin-left="0"
     fit-margin-right="0"
     fit-margin-bottom="0" />
  <metadata
     id="metadata3514">
    <rdf:RDF>
      <cc:Work
         rdf:about="">
        <dc:format>image/svg+xml</dc:format>
        <dc:type
           rdf:resource="http://purl.org/dc/dcmitype/StillImage" />
        <dc:title></dc:title>
      </cc:Work>
    </rdf:RDF>
  </metadata>
  <g
     inkscape:label="Layer 1"
     inkscape:groupmode="layer"
     id="layer1"
     transform="matrix(1,0,0,1,-40.5,-883.6)">
    <path
       inkscape:connector-curvature="0"
       style="fill: #314cb0; fill-rule: nonzero; stroke: #1d2d68; stroke-width: 4.9; fill-opacity: 1; stroke-miterlimit: 4; stroke-opacity: 1"
       d="M 55.7 996 l 114.4 0 c 0.5 0 0.9 0.4 0.9 1 l 0 109.8 c 0 0.5 -0.4 1 -0.9 1 l -114.4 0 c -0.5 0 -0.9 -0.4 -0.9 -1 l 0 -109.8 c 0 -0.5 0.4 -1 0.9 -1 z"
       id="rect3438-4-1-6-9-8-4" />
    <path
       inkscape:connector-curvature="0"
       id="path3008"
       style="fill: #ffffff; font-family: [object Object]; font-size: 120.8px; font-style: normal; font-weight: normal; stroke: none; fill-opacity: 1; letter-spacing: 0px; line-height: 122.00000286%; word-spacing: 0px"
       d="M 84.3 1042.3 l 16.9 -21.4 c 3.5 -4.4 5.2 -7.6 5.2 -9.8 c 0 -0.8 -0.1 -1.4 -0.3 -1.9 l 29.5 0 c -2.2 1.3 -5.1 3.9 -8.4 8 c -0.9 1.1 -2.5 3 -4.8 5.8 l -22.2 27.6 l 26.5 36.5 c 1.6 2.2 3.7 4.7 6.1 7.4 c 0.7 0.7 1.6 1.6 2.9 2.5 l -30.3 0 c 0.2 -0.9 0.4 -1.7 0.4 -2.4 c 0 -2.2 -1.5 -5.3 -4.5 -9.4 l -17 -23.2 l 0 23.5 c 0 5.5 1.1 9.3 3.3 11.5 l -27.7 0 c 1.5 -1.5 2.5 -3.3 2.9 -5.2 c 0.2 -1.1 0.4 -3.2 0.4 -6.2 l 0 -64.9 c 0 -3 -0.1 -5.1 -0.4 -6.2 c -0.4 -2 -1.4 -3.7 -2.9 -5.2 l 27.7 0 c -2.2 2.2 -3.3 6 -3.3 11.4 l 0 21.6" />
    <path
       inkscape:connector-curvature="0"
       id="path3010"
       style="fill: #ffffff; font-family: [object Object]; font-size: 120.8px; font-style: normal; font-weight: normal; stroke: none; fill-opacity: 1; letter-spacing: 0px; line-height: 122.00000286%; word-spacing: 0px"
       d="M 163.5 1032.5 l 0 54.1 c 0 2.8 0.1 4.7 0.2 5.5 c 0.3 1.8 1.1 3.4 2.5 4.8 l -26 0 c 1.3 -1.5 2.2 -3.1 2.5 -4.8 c 0.2 -0.9 0.2 -2.7 0.2 -5.5 l 0 -43.9 c 0 -2.8 -0.1 -4.7 -0.2 -5.5 c -0.3 -1.7 -1.1 -3.3 -2.4 -4.8 l 23.2 0 M 153.2 1001.6 c 3.3 0 6 1.2 8.3 3.5 c 2.3 2.3 3.5 5.1 3.5 8.3 c 0 3.3 -1.1 6.2 -3.4 8.4 c -2.2 2.2 -5 3.4 -8.4 3.4 c -3.3 0 -6.1 -1.1 -8.4 -3.4 c -2.3 -2.3 -3.4 -5.1 -3.4 -8.4 c 0 -3.3 1.1 -6.1 3.4 -8.4 c 2.3 -2.3 5.1 -3.4 8.4 -3.4" />
    <path
       inkscape:connector-curvature="0"
       id="path3012"
       style="fill: #1b2b63; font-family: [object Object]; font-size: 120.8px; font-style: normal; font-weight: normal; stroke: none; fill-opacity: 1; letter-spacing: -6.5999999px; line-height: 122.00000286%; word-spacing: 0px"
       d="M 240.1 1093.1 c -6.3 3.5 -13.3 5.3 -21 5.3 c -12.3 0 -22.1 -4.6 -29.4 -13.7 c -6.8 -8.5 -10.2 -19 -10.2 -31.6 c 0 -14.2 4.2 -25.4 12.5 -33.7 c 7.7 -7.7 16.8 -11.6 27.4 -11.6 c 6.9 0 13.9 2 21.1 6 c 1.8 1 3.3 1.6 4.5 1.7 l -10.6 15.3 c -3.5 -4.4 -8.1 -6.6 -13.9 -6.6 c -9 0 -14.9 5.6 -17.7 16.8 c -0.9 3.7 -1.4 7.7 -1.4 12.1 c 0 12.5 3.2 21 9.5 25.6 c 2.9 2.1 6.1 3.2 9.4 3.2 c 6 0 11.3 -2.6 15.9 -7.7 l 9.8 16 c -0.5 -0.1 -2.5 0.8 -6 2.8" />
    <path
       inkscape:connector-curvature="0"
       id="path3014"
       style="fill: #1b2b63; font-family: [object Object]; font-size: 120.8px; font-style: normal; font-weight: normal; stroke: none; fill-opacity: 1; letter-spacing: -6.5999999px; line-height: 122.00000286%; word-spacing: 0px"
       d="M 283 1078.9 l 0 -10.2 c -1.5 -0.3 -3.1 -0.4 -4.7 -0.4 c -3.3 0 -6.1 0.6 -8.5 1.8 c -3 1.5 -4.5 3.7 -4.5 6.7 c 0 2.2 0.8 4 2.5 5.4 c 1.5 1.2 3.5 1.8 5.8 1.8 c 4.3 0 7.4 -1.7 9.4 -5.1 m 23.2 18.1 l -22 0 l 0 -5 c -4.1 4.1 -9.3 6.2 -15.6 6.3 c -4.5 0 -8.6 -1 -12.3 -3 c -3.9 -2.2 -6.7 -5.2 -8.5 -9.2 c -1.3 -2.8 -1.9 -6 -1.9 -9.6 c 0 -8.2 4 -14.2 12 -18.1 c 4.6 -2.2 11 -3.4 19.3 -3.4 c 1.2 0 3.2 0.1 6.1 0.2 c 0 -6.7 -2.9 -10.1 -8.8 -10.1 c -5 0 -10.2 1.5 -15.7 4.4 l -5.8 -14.1 c 1.3 0 3.8 -0.5 7.6 -1.4 l 8 -2 c 2.7 -0.6 5.7 -0.8 8.8 -0.8 c 12.6 0 20.5 4 23.7 12 c 1.6 3.9 2.4 8.8 2.4 14.6 l 0 28.8 c 0 2.8 0.1 4.7 0.2 5.5 c 0.3 1.8 1.1 3.4 2.5 4.8" />
    <path
       inkscape:connector-curvature="0"
       id="path3016"
       style="fill: #1b2b63; font-family: [object Object]; font-size: 120.8px; font-style: normal; font-weight: normal; stroke: none; fill-opacity: 1; letter-spacing: -6.5999999px; line-height: 122.00000286%; word-spacing: 0px"
       d="M 351.3 1078.9 l 0 -29.4 c -2.6 -2.2 -5.5 -3.3 -8.7 -3.3 c -6.9 0 -10.4 6.7 -10.4 20.2 c 0 10.9 3.2 16.3 9.5 16.3 c 3.3 0 6.5 -1.2 9.6 -3.7 m -2.7 -75.1 l 23.2 0 l 0 82.8 c 0 4.9 0.9 8.4 2.7 10.4 l -22.1 0 l 0 -5 c -4.3 4.2 -9.8 6.3 -16.4 6.3 c -5.6 0 -10.5 -1.7 -14.6 -5.1 c -3.9 -3.2 -6.7 -7.5 -8.6 -13 c -1.3 -3.9 -1.9 -8.1 -1.9 -12.9 c 0 -15.6 4 -26.3 12 -32.1 c 3.8 -2.7 8.1 -4.1 13 -4.1 c 6.5 0 11.6 1.7 15.3 5.2 l 0 -22.4 c 0 -2.8 -0.1 -4.7 -0.2 -5.5 c -0.3 -1.7 -1.1 -3.3 -2.4 -4.8" />
    <path
       inkscape:connector-curvature="0"
       style="fill: #314cb0; fill-rule: nonzero; stroke: none; fill-opacity: 1"
       d="M 139.3 1000.7 l 28.3 0 l 0 27 l -28.3 0 z"
       id="rect4352-5-1" />
    <path
       inkscape:connector-curvature="0"
       style="fill: #ff7700; fill-rule: nonzero; stroke: none; fill-opacity: 1"
       d="M 165.2 996 c 0 6.6 -5.4 12 -12 12 c -6.6 0 -12 -5.4 -12 -12 c 0 -6.6 5.4 -12 12 -12 c 6.6 0 12 5.4 12 12 z"
       id="path3552-6-3-7" />
  </g>
</svg>
