<?xml version="1.0" encoding="UTF-8" standalone="no"?>
<!-- Created with Inkscape (http://www.inkscape.org/) -->

<svg
   xmlns:dc="http://purl.org/dc/elements/1.1/"
   xmlns:cc="http://creativecommons.org/ns#"
   xmlns:rdf="http://www.w3.org/1999/02/22-rdf-syntax-ns#"
   xmlns:svg="http://www.w3.org/2000/svg"
   xmlns="http://www.w3.org/2000/svg"
   xmlns:sodipodi="http://sodipodi.sourceforge.net/DTD/sodipodi-0.dtd"
   xmlns:inkscape="http://www.inkscape.org/namespaces/inkscape"
   width="137"
   height="137"
   id="svg3509"
   version="1.1"
   inkscape:version="0.91 r13725"
   sodipodi:docname="kicad_logo_paths.svg"
   inkscape:export-filename="/home/fabrizio/Desktop/kicad_logo2.png"
   inkscape:export-xdpi="130.52866"
   inkscape:export-ydpi="130.52866">
  <defs
     id="defs3511" />
  <sodipodi:namedview
     id="base"
     pagecolor="#ffffff"
     bordercolor="#666666"
     borderopacity="1.0"
     inkscape:pageopacity="0.0"
     inkscape:pageshadow="2"
     inkscape:zoom="1.4"
     inkscape:cx="134.88004"
     inkscape:cy="75.43884"
     inkscape:document-units="px"
     inkscape:current-layer="layer1"
     showgrid="true"
     inkscape:window-width="1276"
     inkscape:window-height="761"
     inkscape:window-x="0"
     inkscape:window-y="18"
     inkscape:window-maximized="0"
     inkscape:snap-grids="false"
     showguides="true"
     inkscape:guide-bbox="true"
     inkscape:snap-to-guides="false"
     fit-margin-top="0"
     fit-margin-left="0"
     fit-margin-right="0"
     fit-margin-bottom="0" />
  <metadata
     id="metadata3514">
    <rdf:RDF>
      <cc:Work
         rdf:about="">
        <dc:format>image/svg+xml</dc:format>
        <dc:type
           rdf:resource="http://purl.org/dc/dcmitype/StillImage" />
        <dc:title></dc:title>
      </cc:Work>
    </rdf:RDF>
  </metadata>
  <g
     inkscape:label="Layer 1"
     inkscape:groupmode="layer"
     id="layer1"
     transform="matrix(1,0,0,1,-40.5,-883.6)">
    <path
       inkscape:connector-curvature="0"
       style="fill: #4ecdc4; fill-rule: nonzero; stroke: #4ecdc4; stroke-width: 4.9; fill-opacity: 1; stroke-miterlimit: 4; stroke-opacity: 1"
       d="M 50.3 905.2 l 114.4 0 c 0.5 0 0.9 0.4 0.9 1 l 0 109.8 c 0 0.5 -0.4 1 -0.9 1 l -114.4 0 c -0.5 0 -0.9 -0.4 -0.9 -1 l 0 -109.8 c 0 -0.5 0.4 -1 0.9 -1 z"
       id="rect3438-4-1-6-9-8-4" />
    <path
       inkscape:connector-curvature="0"
       id="path3008"
       style="fill: #f7fff7; font-family: [object Object]; font-size: 120.8px; font-style: normal; font-weight: normal; stroke: none; fill-opacity: 1; letter-spacing: 0px; line-height: 122.00000286%; word-spacing: 0px"
       d="M 78.9 951.5 l 16.9 -21.4 c 3.5 -4.4 5.2 -7.6 5.2 -9.8 c 0 -0.8 -0.1 -1.4 -0.3 -1.9 l 29.5 0 c -2.2 1.3 -5.1 3.9 -8.4 8 c -0.9 1.1 -2.5 3 -4.8 5.8 l -22.2 27.6 l 26.5 36.5 c 1.6 2.2 3.7 4.7 6.1 7.4 c 0.7 0.7 1.6 1.6 2.9 2.5 l -30.3 0 c 0.2 -0.9 0.4 -1.7 0.4 -2.4 c 0 -2.2 -1.5 -5.3 -4.5 -9.4 l -17 -23.2 l 0 23.5 c 0 5.5 1.1 9.3 3.3 11.5 l -27.7 0 c 1.5 -1.5 2.5 -3.3 2.9 -5.2 c 0.2 -1.1 0.4 -3.2 0.4 -6.2 l 0 -64.9 c 0 -3 -0.1 -5.1 -0.4 -6.2 c -0.4 -2 -1.4 -3.7 -2.9 -5.2 l 27.7 0 c -2.2 2.2 -3.3 6 -3.3 11.4 l 0 21.6" />
    <path
       inkscape:connector-curvature="0"
       id="path3010"
       style="fill: #f7fff7; font-family: [object Object]; font-size: 120.8px; font-style: normal; font-weight: normal; stroke: none; fill-opacity: 1; letter-spacing: 0px; line-height: 122.00000286%; word-spacing: 0px"
       d="M 158.1 941.7 l 0 54.1 c 0 2.8 0.1 4.7 0.2 5.5 c 0.3 1.8 1.1 3.4 2.5 4.8 l -26 0 c 1.3 -1.5 2.2 -3.1 2.5 -4.8 c 0.2 -0.9 0.2 -2.7 0.2 -5.5 l 0 -43.9 c 0 -2.8 -0.1 -4.7 -0.2 -5.5 c -0.3 -1.7 -1.1 -3.3 -2.4 -4.8 l 23.2 0 M 147.8 910.8 c 3.3 0 6 1.2 8.3 3.5 c 2.3 2.3 3.5 5.1 3.5 8.3 c 0 3.3 -1.1 6.2 -3.4 8.4 c -2.2 2.2 -5 3.4 -8.4 3.4 c -3.3 0 -6.1 -1.1 -8.4 -3.4 c -2.3 -2.3 -3.4 -5.1 -3.4 -8.4 c 0 -3.3 1.1 -6.1 3.4 -8.4 c 2.3 -2.3 5.1 -3.4 8.4 -3.4" />
    <path
       inkscape:connector-curvature="0"
       style="fill: #4ecdc4; fill-rule: nonzero; stroke: none; fill-opacity: 1"
       d="M 133.9 909.9 l 28.3 0 l 0 27 l -28.3 0 z"
       id="rect4352-5-1" />
    <path
       inkscape:connector-curvature="0"
       style="fill: #f7fff7; fill-rule: nonzero; stroke: #4ecdc4; stroke-width: 16.5; fill-opacity: 1"
       d="M 159.8 905.2 c 0 6.6 -5.4 12 -12 12 c -6.6 0 -12 -5.4 -12 -12 c 0 -6.6 5.4 -12 12 -12 c 6.6 0 12 5.4 12 12 z"
       id="path3552-6-3-7" />
    <path
       inkscape:connector-curvature="0"
       style="fill: #f7fff7; fill-rule: nonzero; stroke: none; fill-opacity: 1"
       d="M 159.8 905.2 c 0 6.6 -5.4 12 -12 12 c -6.6 0 -12 -5.4 -12 -12 c 0 -6.6 5.4 -12 12 -12 c 6.6 0 12 5.4 12 12 z"
       id="path3552-6-3-7" />
  </g>
</svg>
