<svg xmlns="http://www.w3.org/2000/svg" width="1108" height="1108">
	<circle cx="550" cy="550" r="550" stroke="blue" stroke-width="0"/>
	<path d="M 403.1 323.9 H 53.8 L 43.6 457.7 h 10.9 c 7.8 -100.2 16.4 -117.7 110.2 -117.7 c 10.9 0 28.5 0 33.4 0 c 11.6 1.8 11.6 9.2 11.6 23.1 V 692.3 c 0 21.9 -1.8 28.5 -52.8 28.5 h -17.2 v 14.6 c 29 -0.6 59.3 -1.1 88.9 -1.1 c 29.6 0 59.9 0.6 88.9 1.1 v -14.6 h -16.9 c -50.2 0 -52 -6.7 -52 -28.5 V 363 c 0 -13.4 0 -20.6 10.9 -23.1 h 33.2 c 92.6 0 101.6 17.4 109.4 117.7 h 10.9"/>
	<path d="M 706.6 715.3 H 695.7 C 682.5 805 674.7 853.8 568.3 853.8 h -83.9 c -24.2 0 -25.3 -3 -25.3 -23.9 V 660.8 h 57.1 c 57.1 0 62.5 20.9 62.5 72 h 9.7 V 575.4 h -9.7 c 0 50.2 -5.5 70.7 -62.5 70.7 H 459 V 496.2 c 0 -20.4 1.1 -23.5 25.3 -23.5 h 82.7 c 93.6 0 104.5 37.2 113 117.2 H 690.9 L 676.4 456.2 H 370.1 v 16.6 c 42.8 0 49.7 0 49.7 27.2 v 326.4 c 0 27.2 -6.8 27.2 -49.7 27.2 v 14.6 h 314.8"/>
	<path d="M 869.7 509.5 L 959.2 380.1 c 9 -12.7 27.2 -38.8 76.8 -39.5 V 326 c -13.8 1.1 -36.8 1.1 -51.3 1.1 c -19.9 0 -44.8 0 -59.8 -1.1 v 14.6 c 19.4 1.8 24.1 13.9 24.1 23.7 c 0 7.2 -3 12.1 -7.3 18.1 L 861.8 498.2 L 772.4 367.3 c -4.2 -6.6 -4.8 -8.5 -4.8 -10.3 c 0 -5.4 6.6 -15.8 26.6 -16.3 V 326 c -19.4 1.1 -49 1.1 -68.9 1.1 c -15.7 0 -45.9 0 -60.5 -1.1 v 14.6 c 33.2 0 44.1 1.3 57.5 20 l 116.7 171.4 l -105.2 153.7 c -26 37.6 -65.3 38.3 -76.8 38.3 v 14.6 c 13.8 -1.1 36.8 -1.1 51.3 -1.1 c 16.3 0 44.8 0 59.8 1.1 v -14.6 c -18.7 -1.8 -24.1 -13.9 -24.1 -23.7 c 0 -7.8 3 -12.1 6 -16.4 l 96.8 -141.2 l 105.2 154.7 c 4.8 6.7 4.8 8.5 4.8 10.3 c 0 4.8 -5.4 15.2 -26.6 16.4 v 14.6 c 19.4 -1.2 49 -1.2 68.9 -1.2 c 15.7 0 45.9 0 60.6 1.2 v -14.6 c -38.7 0 -44.8 -3 -56.9 -20"/>
</svg>