<?xml version="1.0" encoding="UTF-8" standalone="no"?>
<svg	xmlns="http://www.w3.org/2000/svg"
	version="1" width="1200" height="1200" overflow="scroll">
<title>LaTeX logo</title>
<g transform="matrix(45,0,0,45,40,40)" fill="black">
	<path transform="translate(0,0.2)" d="M 5.7 12 C 5.7 12 5.4 12 5.4 12 C 5.3 13.1 5.2 14.3 3.4 14.3 C 3.4 14.3 2.6 14.3 2.6 14.3 C 2.1 14.3 2.1 14.2 2.1 13.9 C 2.1 13.9 2.1 8.6 2.1 8.6 C 2.1 8.2 2.1 8.1 3.1 8.1 C 3.1 8.1 3.4 8.1 3.4 8.1 C 3.4 8.1 3.4 7.8 3.4 7.8 C 3 7.8 2.1 7.8 1.7 7.8 C 1.3 7.8 0.5 7.8 0.2 7.8 C 0.2 7.8 0.2 8.1 0.2 8.1 C 0.2 8.1 0.4 8.1 0.4 8.1 C 1.2 8.1 1.2 8.2 1.2 8.6 C 1.2 8.6 1.2 13.8 1.2 13.8 C 1.2 14.2 1.2 14.3 0.4 14.3 C 0.4 14.3 0.2 14.3 0.2 14.3 C 0.2 14.3 0.2 14.6 0.2 14.6 C 0.2 14.6 5.4 14.6 5.4 14.6 C 5.4 14.6 5.7 12 5.7 12 z"/>
	<path transform="translate(2.5)" d="M 3 8 C 3 7.8 3 7.8 2.8 7.8 C 2.7 7.8 2.7 7.8 2.6 8 C 2.6 8 1 12 1 12 C 0.9 12.2 0.8 12.5 0.2 12.5 C 0.2 12.5 0.2 12.8 0.2 12.8 C 0.2 12.8 1.8 12.8 1.8 12.8 C 1.8 12.8 1.8 12.5 1.8 12.5 C 1.4 12.5 1.3 12.4 1.3 12.2 C 1.3 12.1 1.3 12.1 1.3 12 C 1.3 12 1.6 11.2 1.6 11.2 C 1.6 11.2 3.6 11.2 3.6 11.2 C 3.6 11.2 4 12.2 4 12.2 C 4 12.2 4 12.3 4 12.3 C 4 12.5 3.7 12.5 3.5 12.5 C 3.5 12.5 3.5 12.8 3.5 12.8 C 3.5 12.8 5.4 12.8 5.4 12.8 C 5.4 12.8 5.4 12.5 5.4 12.5 C 5.4 12.5 5.3 12.5 5.3 12.5 C 4.8 12.5 4.8 12.5 4.7 12.3 C 4.7 12.3 3 8 3 8 z M 2.6 8.7 C 2.6 8.7 3.5 10.9 3.5 10.9 C 3.5 10.9 1.7 10.9 1.7 10.9 C 1.7 10.9 2.6 8.7 2.6 8.7 z"/>
	<path transform="translate(7,0.2)" d="M 6.5 7.8 C 6.5 7.8 0.4 7.8 0.4 7.8 C 0.4 7.8 0.2 10 0.2 10 C 0.2 10 0.4 10 0.4 10 C 0.6 8.4 0.7 8.1 2.2 8.1 C 2.4 8.1 2.7 8.1 2.8 8.1 C 3 8.2 3 8.3 3 8.5 C 3 8.5 3 13.8 3 13.8 C 3 14.1 3 14.2 1.9 14.2 C 1.9 14.2 1.5 14.2 1.5 14.2 C 1.5 14.2 1.5 14.5 1.5 14.5 C 2 14.5 3 14.5 3.4 14.5 C 3.9 14.5 4.9 14.5 5.3 14.5 C 5.3 14.5 5.3 14.2 5.3 14.2 C 5.3 14.2 4.9 14.2 4.9 14.2 C 3.9 14.2 3.9 14.1 3.9 13.8 C 3.9 13.8 3.9 8.5 3.9 8.5 C 3.9 8.3 3.9 8.2 4.1 8.1 C 4.2 8.1 4.4 8.1 4.6 8.1 C 6.1 8.1 6.3 8.4 6.4 10 C 6.4 10 6.7 10 6.7 10 C 6.7 10 6.5 7.8 6.5 7.8 z"/>
	<path transform="translate(12.5,2.5)" d="M 6.4 12 C 6.4 12 6.1 12 6.1 12 C 5.9 13.5 5.6 14.3 3.9 14.3 C 3.9 14.3 2.6 14.3 2.6 14.3 C 2.1 14.3 2.1 14.2 2.1 13.9 C 2.1 13.9 2.1 11.2 2.1 11.2 C 2.1 11.2 3 11.2 3 11.2 C 4 11.2 4.1 11.5 4.1 12.4 C 4.1 12.4 4.3 12.4 4.3 12.4 C 4.3 12.4 4.3 9.7 4.3 9.7 C 4.3 9.7 4.1 9.7 4.1 9.7 C 4.1 10.6 4 10.9 3 10.9 C 3 10.9 2.1 10.9 2.1 10.9 C 2.1 10.9 2.1 8.5 2.1 8.5 C 2.1 8.2 2.1 8.1 2.6 8.1 C 2.6 8.1 3.9 8.1 3.9 8.1 C 5.4 8.1 5.7 8.6 5.8 10 C 5.8 10 6.1 10 6.1 10 C 6.1 10 5.8 7.8 5.8 7.8 C 5.8 7.8 0.2 7.8 0.2 7.8 C 0.2 7.8 0.2 8.1 0.2 8.1 C 0.2 8.1 0.4 8.1 0.4 8.1 C 1.2 8.1 1.2 8.2 1.2 8.6 C 1.2 8.6 1.2 13.8 1.2 13.8 C 1.2 14.1 1.2 14.3 0.4 14.3 C 0.4 14.3 0.2 14.3 0.2 14.3 C 0.2 14.3 0.2 14.6 0.2 14.6 C 0.2 14.6 5.9 14.6 5.9 14.6 C 5.9 14.6 6.4 12 6.4 12 z"/>
	<path transform="translate(17.9,0.2)" d="M 4 10.8 C 4 10.8 5.3 8.7 5.3 8.7 C 5.5 8.4 5.9 8.1 6.8 8.1 C 6.8 8.1 6.8 7.8 6.8 7.8 C 6.8 7.8 4.4 7.8 4.4 7.8 C 4.4 7.8 4.4 8.1 4.4 8.1 C 4.8 8.1 5 8.3 5 8.6 C 5 8.7 5 8.7 4.9 8.8 C 4.9 8.8 3.8 10.5 3.8 10.5 C 3.8 10.5 2.5 8.6 2.5 8.6 C 2.5 8.5 2.4 8.4 2.4 8.4 C 2.4 8.3 2.7 8.1 3.1 8.1 C 3.1 8.1 3.1 7.8 3.1 7.8 C 2.7 7.8 2 7.8 1.6 7.8 C 1.3 7.8 0.7 7.8 0.3 7.8 C 0.3 7.8 0.3 8.1 0.3 8.1 C 0.3 8.1 0.5 8.1 0.5 8.1 C 1.1 8.1 1.3 8.2 1.4 8.5 C 1.4 8.5 3.3 11.2 3.3 11.2 C 3.3 11.2 1.6 13.6 1.6 13.6 C 1.5 13.8 1.2 14.3 0.2 14.3 C 0.2 14.3 0.2 14.6 0.2 14.6 C 0.2 14.6 2.6 14.6 2.6 14.6 C 2.6 14.6 2.6 14.3 2.6 14.3 C 2.1 14.3 2 14 2 13.8 C 2 13.7 2 13.7 2.1 13.6 C 2.1 13.6 3.5 11.5 3.5 11.5 C 3.5 11.5 5 13.9 5 13.9 C 5.1 13.9 5.1 14 5.1 14 C 5.1 14.1 4.9 14.3 4.4 14.3 C 4.4 14.3 4.4 14.6 4.4 14.6 C 4.8 14.6 5.5 14.6 5.9 14.6 C 6.3 14.6 6.8 14.6 7.2 14.6 C 7.2 14.6 7.2 14.3 7.2 14.3 C 7.2 14.3 7 14.3 7 14.3 C 6.5 14.3 6.3 14.2 6.1 13.9 C 6.1 13.9 4 10.8 4 10.8 z"/>
</g>
</svg>
